<svg width="120" height="120" viewBox="0 0 120 120" fill="none" xmlns="http://www.w3.org/2000/svg">
<circle cx="60" cy="60" r="60" fill="#F2F2F2"/>
<path fill-rule="evenodd" clip-rule="evenodd" d="M59.999 60.0013C59.999 54.8466 64.1777 50.668 69.3324 50.668C74.487 50.668 78.6657 54.8466 78.6657 60.0013C78.6657 65.156 74.487 69.3346 69.3324 69.3346C64.1777 69.3346 59.999 65.156 59.999 60.0013Z" fill="#1ABCFE"/>
<path fill-rule="evenodd" clip-rule="evenodd" d="M41.334 78.6673C41.334 73.5127 45.5127 69.334 50.6673 69.334H60.0007V78.6673C60.0007 83.822 55.822 88.0007 50.6673 88.0007C45.5127 88.0007 41.334 83.822 41.334 78.6673Z" fill="#0ACF83"/>
<path fill-rule="evenodd" clip-rule="evenodd" d="M60.001 32.0012V50.6679H69.3343C74.489 50.6679 78.6676 46.4892 78.6676 41.3346C78.6676 36.1799 74.489 32.0012 69.3343 32.0012H60.001Z" fill="#FF7262"/>
<path fill-rule="evenodd" clip-rule="evenodd" d="M41.334 41.3343C41.334 46.489 45.5127 50.6676 50.6673 50.6676H60.0007V32.001H50.6673C45.5127 32.001 41.334 36.1796 41.334 41.3343Z" fill="#F24E1E"/>
<path fill-rule="evenodd" clip-rule="evenodd" d="M41.334 60.0013C41.334 65.156 45.5127 69.3346 50.6673 69.3346H60.0007V50.668H50.6673C45.5127 50.668 41.334 54.8466 41.334 60.0013Z" fill="#A259FF"/>
</svg>
