<svg xmlns="http://www.w3.org/2000/svg" xmlns:xlink="http://www.w3.org/1999/xlink" viewBox="0 0 50 50" width="50" height="50" preserveAspectRatio="xMidYMid meet" style="width: 100%; height: 100%; transform: translate3d(0px, 0px, 0px); content-visibility: visible;"><defs><clipPath id="__lottie_element_2"><rect width="50" height="50" x="0" y="0"></rect></clipPath></defs><g clip-path="url(#__lottie_element_2)"><g transform="matrix(0.06669999659061432,0,0,0.06669999659061432,9.141942024230957,32.7390022277832)" opacity="1" style="display: block;"><g opacity="1" transform="matrix(1,0,0,1,0,0)"><path stroke-linecap="round" stroke-linejoin="round" fill-opacity="0" stroke="rgb(255,255,255)" stroke-opacity="1" stroke-width="60" d=" M30,30 C30,30 445.5039978027344,30 445.5039978027344,30"></path></g></g><g transform="matrix(0.06669999659061432,0,0,0.06669999659061432,9.141942024230957,22.999000549316406)" opacity="1" style="display: block;"><g opacity="1" transform="matrix(1,0,0,1,0,0)"><path stroke-linecap="round" stroke-linejoin="round" fill-opacity="0" stroke="rgb(255,255,255)" stroke-opacity="1" stroke-width="60" d=" M30,30 C30,30 445.5039978027344,30 445.5039978027344,30"></path></g></g><g transform="matrix(0.06669999659061432,0,0,0.06669999659061432,9.141942024230957,13.259000778198242)" opacity="1" style="display: block;"><g opacity="1" transform="matrix(1,0,0,1,0,0)"><path stroke-linecap="round" stroke-linejoin="round" fill-opacity="0" stroke="rgb(255,255,255)" stroke-opacity="1" stroke-width="60" d=" M30,30 C30,30 445.5039978027344,30 445.5039978027344,30"></path></g></g></g></svg>